{
  "source": "C:\\Users\\Peter\\Desktop\\stuff\\MIUN\\quantitative_research\\video_compression\\videos\\BVI-HD\\BVI-HD_CDVL_videos\\ORIG\\TreeGrassFamily_1920x1080_30fps.mp4",
  "output": "C:\\Users\\Peter\\Desktop\\stuff\\MIUN\\quantitative_research\\video_compression\\compressed_videos\\BVI-HD\\av1\\2.5\\TreeGrassFamily_1920x1080_30fps_av1.mkv",
  "codec": "av1",
  "ok": "Input #0, mov,mp4,m4a,3gp,3g2,mj2, from 'C:\\Users\\Peter\\Desktop\\stuff\\MIUN\\quantitative_research\\video_compression\\videos\\BVI-HD\\BVI-HD_CDVL_videos\\ORIG\\TreeGrassFamily_1920x1080_30fps.mp4':\n  Metadata:\n    major_brand     : isom\n    minor_version   : 512\n    compatible_brands: isomiso2avc1mp41\n    encoder         : Lavf54.28.101\n  Duration: 00:00:05.00, start: 0.000000, bitrate: 331787 kb/s\n  Stream #0:0[0x1](und): Video: h264 (High 4:4:4 Predictive) (avc1 / 0x31637661), yuv420p(progressive), 1920x1080, 331784 kb/s, 30 fps, 30 tbr, 30 tbn (default)\n    Metadata:\n      handler_name    : VideoHandler\n      vendor_id       : [0][0][0][0]\n[out#0/matroska @ 0000017f56fd8f00] Codec AVOption b:a (set bitrate (in bits/s)) has not been used for any stream. The most likely reason is either wrong type (e.g. a video option with no video streams) or that it is a private option of some decoder which was not actually used for any stream.\nStream mapping:\n  Stream #0:0 -> #0:0 (h264 (native) -> av1 (libsvtav1))\nPress [q] to stop, [?] for help\nSvt[info]: -------------------------------------------\nSvt[info]: SVT [version]:\tSVT-AV1 Encoder Lib v3.1.0-19-g6ecfe8ec\nSvt[info]: SVT [build]  :\tGCC 15.2.0\t 64 bit\nSvt[info]: LIB Build date: Aug 17 2025 11:37:13\nSvt[info]: -------------------------------------------\nSvt[info]: Level of Parallelism: 5\nSvt[info]: Number of PPCS 93\nSvt[info]: [asm level on system : up to avx2]\nSvt[info]: [asm level selected : up to avx2]\nSvt[info]: -------------------------------------------\nSvt[info]: SVT [config]: main profile\ttier (auto)\tlevel (auto)\nSvt[info]: SVT [config]: width / height / fps numerator / fps denominator \t\t: 1920 / 1080 / 30 / 1\nSvt[info]: SVT [config]: bit-depth / color format \t\t\t\t\t: 8 / YUV420\nSvt[info]: SVT [config]: preset / tune / pred struct \t\t\t\t\t: 4 / PSNR / random access\nSvt[info]: SVT [config]: gop size / mini-gop size / key-frame type \t\t\t: 161 / 16 / key frame\nSvt[info]: SVT [config]: BRC mode / target bitrate (kbps)\t\t\t\t: VBR / 2500 \nSvt[info]: SVT [config]: AQ mode / Variance Boost \t\t\t\t\t: 2 / 0\nSvt[info]: SVT [config]: sharpness / luminance-based QP bias \t\t\t\t: 0 / 0\nSvt[info]: SVT [config]: QP scale compress strength \t\t\t\t\t: 0\nSvt[info]: -------------------------------------------\nOutput #0, matroska, to 'C:\\Users\\Peter\\Desktop\\stuff\\MIUN\\quantitative_research\\video_compression\\compressed_videos\\BVI-HD\\av1\\2.5\\TreeGrassFamily_1920x1080_30fps_av1.mkv':\n  Metadata:\n    major_brand     : isom\n    minor_version   : 512\n    compatible_brands: isomiso2avc1mp41\n    encoder         : Lavf62.3.100\n  Stream #0:0(und): Video: av1 (AV01 / 0x31305641), yuv420p(tv, progressive), 1920x1080, q=2-31, 2500 kb/s, 30 fps, 1k tbn (default)\n    Metadata:\n      encoder         : Lavc62.11.100 libsvtav1\n      handler_name    : VideoHandler\n      vendor_id       : [0][0][0][0]\n    Side data:\n      cpb: bitrate max/min/avg: 0/0/2500000 buffer size: 2500000 vbv_delay: N/A\nframe=    0 fps=0.0 q=0.0 size=       0KiB time=N/A bitrate=N/A speed=N/A elapsed=0:00:01.05    \nframe=    0 fps=0.0 q=0.0 size=       0KiB time=N/A bitrate=N/A speed=N/A elapsed=0:00:01.60    \nframe=    0 fps=0.0 q=0.0 size=       0KiB time=N/A bitrate=N/A speed=N/A elapsed=0:00:02.19    \nframe=    0 fps=0.0 q=0.0 size=       0KiB time=N/A bitrate=N/A speed=N/A elapsed=0:00:02.79    \nframe=    0 fps=0.0 q=0.0 size=       0KiB time=N/A bitrate=N/A speed=N/A elapsed=0:00:03.34    \nframe=    0 fps=0.0 q=0.0 size=       0KiB time=N/A bitrate=N/A speed=N/A elapsed=0:00:03.97    \nframe=    0 fps=0.0 q=0.0 size=       0KiB time=N/A bitrate=N/A speed=N/A elapsed=0:00:04.50    \nframe=    0 fps=0.0 q=0.0 size=       0KiB time=N/A bitrate=N/A speed=N/A elapsed=0:00:05.10    \nframe=    1 fps=0.2 q=27.0 size=       1KiB time=00:00:00.00 bitrate=N/A speed=   0x elapsed=0:00:05.64    \nframe=    1 fps=0.2 q=27.0 size=       1KiB time=00:00:00.00 bitrate=N/A speed=   0x elapsed=0:00:06.22    \nframe=    1 fps=0.1 q=27.0 size=       1KiB time=00:00:00.00 bitrate=N/A speed=   0x elapsed=0:00:06.83    \nframe=    1 fps=0.1 q=27.0 size=       1KiB time=00:00:00.00 bitrate=N/A speed=   0x elapsed=0:00:07.47    \nframe=    4 fps=0.5 q=50.0 size=       1KiB time=00:00:00.10 bitrate=  57.0kbits/s speed=0.0124x elapsed=0:00:08.07    \nframe=    7 fps=0.8 q=46.0 size=       1KiB time=00:00:00.20 bitrate=  28.5kbits/s speed=0.0233x elapsed=0:00:08.59    \nframe=    8 fps=0.9 q=50.0 size=       1KiB time=00:00:00.23 bitrate=  24.4kbits/s speed=0.0256x elapsed=0:00:09.11    \nframe=   10 fps=1.0 q=49.0 size=       1KiB time=00:00:00.30 bitrate=  19.0kbits/s speed=0.0311x elapsed=0:00:09.63    \nframe=   13 fps=1.3 q=44.0 size=       1KiB time=00:00:00.40 bitrate=  14.3kbits/s speed=0.0393x elapsed=0:00:10.17    \nframe=   18 fps=1.7 q=50.0 size=       1KiB time=00:00:00.53 bitrate=  10.7kbits/s speed=0.0497x elapsed=0:00:10.72    \nframe=   22 fps=2.0 q=50.0 size=       1KiB time=00:00:00.70 bitrate=   8.1kbits/s speed=0.0622x elapsed=0:00:11.24    \nframe=   23 fps=1.9 q=49.0 size=       1KiB time=00:00:00.73 bitrate=   7.8kbits/s speed=0.0621x elapsed=0:00:11.80    \nframe=   27 fps=2.2 q=47.0 size=       1KiB time=00:00:00.86 bitrate=   6.6kbits/s speed=0.0703x elapsed=0:00:12.33    \nframe=   32 fps=2.5 q=51.0 size=       1KiB time=00:00:01.03 bitrate=   5.5kbits/s speed=0.0803x elapsed=0:00:12.87    \nframe=   36 fps=2.7 q=51.0 size=       1KiB time=00:00:01.16 bitrate=   4.9kbits/s speed=0.0871x elapsed=0:00:13.39    \nframe=   39 fps=2.8 q=49.0 size=       1KiB time=00:00:01.26 bitrate=   4.5kbits/s speed=0.091x elapsed=0:00:13.91    \nframe=   44 fps=3.0 q=55.0 size=       1KiB time=00:00:01.43 bitrate=   4.0kbits/s speed=0.0992x elapsed=0:00:14.45    \nframe=   51 fps=3.4 q=52.0 size=       1KiB time=00:00:01.66 bitrate=   3.4kbits/s speed=0.111x elapsed=0:00:15.00    \nframe=   57 fps=3.7 q=44.0 size=       1KiB time=00:00:01.86 bitrate=   3.1kbits/s speed=0.12x elapsed=0:00:15.51    \nframe=   61 fps=3.8 q=49.0 size=       1KiB time=00:00:02.00 bitrate=   2.9kbits/s speed=0.125x elapsed=0:00:16.03    \nframe=   69 fps=4.2 q=52.0 size=       1KiB time=00:00:02.20 bitrate=   2.6kbits/s speed=0.133x elapsed=0:00:16.55    \nframe=   73 fps=4.3 q=48.0 size=       1KiB time=00:00:02.40 bitrate=   2.4kbits/s speed=0.141x elapsed=0:00:17.08    \nframe=   77 fps=4.4 q=50.0 size=       1KiB time=00:00:02.53 bitrate=   2.3kbits/s speed=0.144x elapsed=0:00:17.60    \nframe=   85 fps=4.7 q=53.0 size=       1KiB time=00:00:02.80 bitrate=   2.0kbits/s speed=0.155x elapsed=0:00:18.11    \nframe=   89 fps=4.8 q=49.0 size=       1KiB time=00:00:02.93 bitrate=   1.9kbits/s speed=0.157x elapsed=0:00:18.64    \nframe=   97 fps=5.1 q=42.0 size=       1KiB time=00:00:03.13 bitrate=   1.8kbits/s speed=0.163x elapsed=0:00:19.16    \nframe=  101 fps=5.1 q=53.0 size=       1KiB time=00:00:03.33 bitrate=   1.7kbits/s speed=0.169x elapsed=0:00:19.68    \nframe=  105 fps=5.2 q=50.0 size=       1KiB time=00:00:03.46 bitrate=   1.6kbits/s speed=0.172x elapsed=0:00:20.20    \nframe=  113 fps=5.4 q=43.0 size=       1KiB time=00:00:03.73 bitrate=   1.5kbits/s speed=0.18x elapsed=0:00:20.74    \nframe=  117 fps=5.5 q=52.0 size=       1KiB time=00:00:03.86 bitrate=   1.5kbits/s speed=0.182x elapsed=0:00:21.26    \nframe=  121 fps=5.6 q=49.0 size=       1KiB time=00:00:04.00 bitrate=   1.4kbits/s speed=0.184x elapsed=0:00:21.78    \nframe=  127 fps=5.7 q=54.0 size=       1KiB time=00:00:04.20 bitrate=   1.4kbits/s speed=0.188x elapsed=0:00:22.30    \nframe=  133 fps=5.8 q=56.0 size=       1KiB time=00:00:04.40 bitrate=   1.3kbits/s speed=0.193x elapsed=0:00:22.82    \nframe=  141 fps=6.0 q=56.0 size=       1KiB time=00:00:04.66 bitrate=   1.2kbits/s speed= 0.2x elapsed=0:00:23.34    \n[out#0/matroska @ 0000017f56fd8f00] video:1677KiB audio:0KiB subtitle:0KiB other streams:0KiB global headers:0KiB muxing overhead: 0.084903%\nframe=  150 fps=6.3 q=56.0 Lsize=    1678KiB time=00:00:04.96 bitrate=2768.4kbits/s speed=0.21x elapsed=0:00:23.62    \n",
  "seconds": 24.19977068901062,
  "probe_out": {}
}